<svg width="67" height="67" viewBox="0 0 67 67" fill="none" xmlns="http://www.w3.org/2000/svg">
<path d="M30.621 45.0186C30.6221 45.4627 30.6514 45.9063 30.7088 46.3468C30.7616 46.7755 30.8815 47.1937 31.0642 47.5862C31.2429 47.9947 31.5477 48.3371 31.9353 48.5646C32.3229 48.7921 32.7734 48.8931 33.2227 48.8532C33.9206 48.8572 34.5949 48.6042 35.1135 48.1437C35.222 48.4235 35.3121 48.7098 35.3833 49.001C35.446 49.2818 35.4762 49.5687 35.4732 49.8562C35.4719 50.4903 35.3604 51.1195 35.1435 51.7165C34.9224 52.3295 34.5637 52.8853 34.0942 53.3424C33.5699 53.843 32.9487 54.2344 32.2677 54.4932C31.3968 54.8113 30.4722 54.9619 29.5439 54.9366C27.147 54.9366 25.2912 54.2278 23.9764 52.8103C22.6617 51.3927 22.0029 49.4437 22 46.9633V19.3842C22 17.7301 22.2413 16.4111 22.7238 15.4271C23.1429 14.5149 23.8251 13.7445 24.6852 13.2121C25.5355 12.7102 26.4778 12.3787 27.4582 12.2365C28.5062 12.0779 29.565 11.9988 30.6253 12L30.621 45.0186ZM36.3705 21.9835C36.3693 21.5387 36.34 21.0944 36.2827 20.6532C36.2298 20.2244 36.1099 19.8063 35.9272 19.4137C35.7487 19.0056 35.4442 18.6635 35.057 18.436C34.6699 18.2086 34.2198 18.1073 33.7709 18.1468C33.0699 18.1288 32.3899 18.3837 31.8779 18.8563C31.657 18.3108 31.536 17.731 31.5203 17.1438C31.5208 16.5096 31.6323 15.8802 31.8501 15.2835C32.0696 14.6709 32.4277 14.1156 32.8972 13.6597C33.4213 13.1582 34.0425 12.7661 34.7238 12.5068C35.5953 12.1885 36.5206 12.0379 37.4497 12.0634C39.8451 12.0634 41.7009 12.7721 43.0171 14.1897C44.3333 15.6073 44.9943 17.5548 45 20.0324V47.6158C45 49.2685 44.7587 50.5875 44.2762 51.5729C43.8577 52.4848 43.1763 53.2552 42.3169 53.7879C41.4638 54.292 40.5175 54.6236 39.5332 54.7635C38.4853 54.9231 37.4265 55.0022 36.3662 55L36.3705 21.9835Z" fill="white"/>
<path d="M33.5 5.56296e-08C26.8745 9.9609e-08 20.3978 1.96464 14.8888 5.6455C9.37984 9.32635 5.08607 14.5581 2.55042 20.6792C0.0147705 26.8003 -0.648866 33.5358 0.643426 40.0341C1.93572 46.5324 5.1259 52.5015 9.81057 57.1867C14.4952 61.8719 20.464 65.0628 26.9621 66.3558C33.4602 67.6489 40.1958 66.986 46.3172 64.4511C52.4386 61.9161 57.6709 57.6229 61.3524 52.1144C65.0339 46.6059 66.9992 40.1294 67 33.5039C67.0008 29.1042 66.1348 24.7474 64.4516 20.6825C62.7684 16.6175 60.3009 12.9239 57.19 9.81272C54.0791 6.7015 50.3859 4.23357 46.3211 2.54989C42.2563 0.866204 37.8997 -0.000253492 33.5 5.56296e-08ZM33.5 64.0086C27.4654 64.0086 21.5662 62.219 16.5487 58.8662C11.5311 55.5134 7.62052 50.748 5.31142 45.1726C3.00232 39.5972 2.39845 33.4622 3.57617 27.5436C4.7539 21.625 7.66032 16.1886 11.9279 11.9218C16.1954 7.65509 21.6324 4.7497 27.5513 3.5731C33.4701 2.3965 39.6049 3.00154 45.1799 5.31169C50.7549 7.62185 55.5195 11.5334 58.8714 16.5515C62.2232 21.5697 64.0117 27.4692 64.0105 33.5039C64.0095 41.5949 60.7945 49.3542 55.0727 55.0749C49.3509 60.7956 41.591 64.0091 33.5 64.0086Z" fill="white"/>
</svg>
